<?xml version="1.0" encoding="UTF-8"?>
<svg id="Calque_2" data-name="Calque 2" xmlns="http://www.w3.org/2000/svg" viewBox="0 0 636.62 305.54">
  <defs>
    <style>
      .cls-1 {
        fill: none;
      }

      .cls-2 {
        fill: #fff;
      }
    </style>
  </defs>
  <g id="Calque_1-2" data-name="Calque 1">
    <g>
      <polygon class="cls-2" points="576.11 22.89 574.31 28.81 573.88 28.38 572.25 30.01 572.25 31.64 570.62 33.27 570.62 36.53 568.99 38.16 568.99 39.79 567.36 41.42 567.36 43.05 564.1 46.31 564.1 47.95 562.46 49.58 562.46 52.84 560.83 54.47 560.83 56.1 557.57 59.36 557.57 62.62 555.94 64.25 555.94 65.88 554.31 67.51 554.31 69.14 552.68 70.77 552.68 72.4 549.42 75.66 549.42 77.29 547.79 78.92 547.79 80.55 546.16 82.18 546.16 83.81 544.53 85.44 544.53 87.07 542.9 88.7 542.9 90.33 541.27 91.96 541.27 93.59 538.01 96.86 538.01 98.49 536.38 100.12 536.38 101.75 534.75 103.38 534.75 105.01 533.12 106.64 533.12 108.27 531.49 109.9 531.49 111.53 529.86 113.16 529.86 114.79 528.23 116.42 528.23 118.05 526.6 119.68 526.6 121.31 524.97 122.94 524.97 124.57 523.34 126.2 523.34 127.83 520.08 131.09 520.08 134.35 516.82 137.61 516.82 139.24 515.18 140.87 515.18 142.5 513.55 144.14 513.55 145.77 511.92 147.4 511.92 149.03 510.29 150.66 510.29 152.29 508.66 153.92 508.66 155.55 507.03 157.18 507.03 158.81 503.77 162.07 503.77 163.7 502.14 165.33 502.14 166.96 500.51 168.59 500.51 170.22 498.88 171.85 498.88 173.48 497.25 175.11 497.25 176.74 493.99 180 493.99 181.63 492.36 183.26 492.36 184.89 490.73 186.52 490.73 188.15 489.1 189.78 489.1 191.42 487.47 193.05 487.47 201.2 485.84 202.83 485.84 219.13 484.21 220.76 484.21 237.06 482.58 238.7 482.58 255 480.95 256.63 480.95 271.3 479.32 272.93 479.32 289.24 477.69 290.87 477.69 300.65 472.8 305.54 394.54 305.54 392.91 303.91 391.28 303.91 391.28 294.13 392.91 292.5 392.91 274.56 394.54 272.93 394.54 261.52 396.17 259.89 396.17 248.48 397.8 246.85 397.8 233.8 399.43 232.17 399.43 222.39 401.06 220.76 401.06 209.35 402.69 207.72 402.69 196.31 401.06 194.68 401.06 191.42 399.43 189.78 399.43 186.52 397.8 184.89 397.8 183.26 396.17 181.63 396.17 180 394.54 178.37 394.54 176.74 392.91 175.11 392.91 173.48 391.28 171.85 391.28 168.59 389.65 166.96 389.65 165.33 388.02 163.7 388.02 160.44 386.39 158.81 386.39 157.18 384.76 155.55 384.76 152.29 383.13 150.66 383.13 149.03 381.5 147.4 381.5 145.77 379.87 144.14 379.87 140.87 378.24 139.24 378.24 137.61 376.61 135.98 376.61 134.35 374.98 132.72 374.98 131.09 373.35 129.46 373.35 126.2 371.71 124.57 371.71 122.94 370.08 121.31 370.08 118.05 368.45 116.42 368.45 114.79 366.82 113.16 366.82 111.53 365.19 109.9 365.19 106.64 363.56 105.01 363.56 103.38 361.93 101.75 361.93 98.49 360.3 96.86 360.3 95.22 358.67 93.59 358.67 91.96 357.04 90.33 357.04 87.07 355.41 85.44 355.41 83.81 353.78 82.18 353.78 80.55 352.15 78.92 352.15 75.66 350.52 74.03 350.52 70.77 348.89 69.14 348.89 67.51 345.63 64.25 344 64.25 340.74 67.51 340.74 95.22 339.11 96.86 339.11 121.31 337.48 122.94 337.48 144.14 335.85 145.77 335.85 170.22 334.22 171.85 334.22 197.94 332.59 199.57 332.59 202.83 334.22 204.46 332.59 206.09 332.59 222.39 330.96 224.02 330.96 248.48 329.33 250.11 329.33 281.08 327.7 282.71 327.7 302.28 324.43 305.54 244.55 305.54 241.29 302.28 241.29 277.82 242.92 276.19 242.92 255 244.55 253.37 244.55 235.43 246.18 233.8 246.18 212.61 247.81 210.98 247.81 188.15 249.44 186.52 249.44 170.22 246.18 166.96 244.55 168.59 242.92 168.59 239.66 171.85 239.66 175.11 238.03 176.74 238.03 180 236.4 181.63 236.4 186.52 234.77 188.15 234.77 191.42 233.14 193.05 233.14 196.31 231.51 197.94 231.51 201.2 229.87 202.83 229.87 206.09 228.24 207.72 228.24 210.98 226.61 212.61 226.61 215.87 224.98 217.5 224.98 220.76 223.35 222.39 223.35 225.65 221.72 227.28 221.72 230.54 220.09 232.17 220.09 235.43 218.46 237.06 218.46 240.33 216.83 241.96 216.83 246.85 215.2 248.48 215.2 251.74 213.57 253.37 213.57 256.63 211.94 258.26 211.94 263.15 210.31 264.78 210.31 268.04 208.68 269.67 208.68 272.93 207.05 274.56 207.05 277.82 205.42 279.45 205.42 282.71 203.79 284.34 203.79 289.24 202.16 290.87 202.16 294.13 200.53 295.76 200.53 299.02 198.9 300.65 198.9 302.28 195.64 305.54 132.05 305.54 130.42 303.91 130.42 300.65 128.79 299.02 128.79 282.71 127.16 281.08 127.16 264.78 125.53 263.15 125.53 250.11 123.9 248.48 123.9 233.8 122.27 232.17 122.27 217.5 120.64 215.87 120.64 201.2 119.01 199.57 119.01 186.52 117.38 184.89 117.38 175.11 115.75 173.48 115.75 170.22 112.49 166.96 109.23 166.96 107.6 168.59 107.6 170.22 105.97 171.85 105.97 178.37 104.34 180 104.34 188.15 102.71 189.78 102.71 197.94 101.08 199.57 101.08 209.35 99.45 210.98 99.45 217.5 97.82 219.13 97.82 228.91 96.19 230.54 96.19 238.7 94.56 240.33 94.56 250.11 92.93 251.74 92.93 258.26 91.3 259.89 91.3 268.04 89.67 269.67 89.67 277.82 88.04 279.45 88.04 290.87 86.4 292.5 86.4 300.65 81.51 305.54 3.26 305.54 1.63 303.91 1.63 302.28 0 300.65 0 297.39 1.63 295.76 1.63 287.61 3.26 285.98 3.26 276.19 4.89 274.56 4.89 266.41 6.52 264.78 6.52 258.26 8.15 256.63 8.15 248.48 9.78 246.85 9.78 237.06 11.41 235.43 11.41 227.28 13.04 225.65 13.04 217.5 14.67 215.87 14.67 209.35 16.3 207.72 16.3 199.57 17.93 197.94 17.93 189.78 19.56 188.15 19.56 180 21.19 178.37 21.19 171.85 22.82 170.22 22.82 162.07 24.45 160.44 24.45 152.29 26.08 150.66 26.08 142.5 27.71 140.87 27.71 132.72 29.34 131.09 29.34 124.57 30.97 122.94 30.97 113.16 32.6 111.53 32.6 105.01 34.23 103.38 34.23 93.59 35.86 91.96 35.86 85.44 37.49 83.81 37.49 75.66 39.12 74.03 39.12 65.88 40.76 64.25 40.76 57.73 42.39 56.1 42.39 47.95 44.02 46.31 44.02 39.79 45.65 38.16 45.65 31.64 47.28 30.01 47.28 23.49 48.91 21.86 48.91 20.23 50.54 18.6 65.21 18.6 65.22 18.61 71.72 18.61 71.73 18.6 73.36 18.6 73.37 18.61 76.62 18.61 76.62 18.6 86.4 18.6 86.41 18.61 89.66 18.61 89.67 18.6 153.25 18.6 154.88 20.23 156.51 20.23 159.77 23.49 159.77 33.27 161.4 34.9 161.4 49.58 163.03 51.21 163.03 62.62 164.66 64.25 164.66 77.29 166.29 78.92 166.29 90.33 167.92 91.96 167.92 105.01 169.55 106.64 169.55 122.94 171.18 124.57 171.18 135.98 172.81 137.61 172.81 150.66 174.44 152.29 174.44 162.07 176.07 163.7 176.07 165.33 177.7 166.96 180.96 166.96 184.23 163.7 184.23 160.44 185.86 158.81 185.86 157.18 187.49 155.55 187.49 152.29 189.12 150.66 189.12 147.4 190.75 145.77 190.75 142.5 192.38 140.87 192.38 137.61 194.01 135.98 194.01 132.72 195.64 131.09 195.64 127.83 197.27 126.2 197.27 122.94 198.9 121.31 198.9 118.05 200.53 116.42 200.53 113.16 202.16 111.53 202.16 108.27 203.79 106.64 203.79 103.38 205.42 101.75 205.42 98.49 207.05 96.86 207.05 93.59 208.68 91.96 208.68 90.33 210.31 88.7 210.31 85.44 211.94 83.81 211.94 80.55 213.57 78.92 213.57 75.66 215.2 74.03 215.2 70.77 216.83 69.14 216.83 65.88 218.46 64.25 218.46 60.99 220.09 59.36 220.09 56.1 221.72 54.47 221.72 51.21 223.35 49.58 223.35 46.31 224.98 44.68 224.98 43.05 226.61 41.42 226.61 36.53 228.24 34.9 228.24 31.64 229.87 30.01 229.87 28.38 231.51 26.75 231.51 25.12 233.14 23.49 233.14 21.86 234.77 20.23 236.4 20.23 238.03 18.6 388.02 18.6 388.03 18.61 391.27 18.61 391.28 18.6 391.29 18.61 396.16 18.61 396.17 18.6 397.8 18.6 397.81 18.61 402.68 18.61 402.69 18.6 402.7 18.61 409.21 18.61 409.21 18.6 414.1 18.6 415.73 20.23 418.99 20.23 422.26 23.49 422.26 25.12 423.89 26.75 423.89 28.38 425.52 30.01 425.52 33.27 427.15 34.9 427.15 39.79 428.78 41.42 428.78 44.68 430.41 46.31 430.41 49.58 432.04 51.21 432.04 54.47 433.67 56.1 433.67 59.36 435.3 60.99 435.3 64.25 436.93 65.88 436.93 70.77 438.56 72.4 438.56 74.03 440.19 75.66 440.19 80.55 441.82 82.18 441.82 83.81 443.45 85.44 443.45 90.33 445.08 91.96 445.08 93.59 449.97 98.49 454.86 98.49 459.75 93.59 459.75 91.96 461.38 90.33 461.38 87.07 463.01 85.44 463.01 82.18 464.64 80.55 464.64 77.29 466.27 75.66 466.27 70.77 467.91 69.14 467.91 65.88 469.54 64.25 469.54 60.99 471.17 59.36 471.17 54.47 472.8 52.84 472.8 49.58 474.43 47.95 474.43 44.68 476.06 43.05 476.06 39.79 477.69 38.16 477.69 34.9 479.32 33.27 479.32 31.64 480.95 30.01 480.95 25.12 485.84 20.23 487.47 20.23 489.1 18.6 568.99 18.6 570.62 20.23 572.25 20.23 575.51 23.49 576.11 22.89"/>
      <polyline class="cls-1" points="563.71 63.7 574.31 28.81 576.11 22.89 583.07 0"/>
      <path class="cls-2" d="M636.62,44.58c0,15.61-10.07,25.98-25.28,25.98s-25.28-10.37-25.28-25.98,10.07-25.98,25.28-25.98,25.28,10.37,25.28,25.98ZM589.7,44.58c0,13.39,8.66,22.36,21.65,22.36s21.65-8.96,21.65-22.36-8.66-22.36-21.65-22.36-21.65,8.97-21.65,22.36ZM612.24,31.12c6.24,0,9.27,2.94,9.27,7.57,0,3.11-1.86,5.72-4.89,6.48v.17c1.77.51,2.78,1.68,3.88,4.71l2.78,7.66h-6.07l-2.27-6.48c-.84-2.69-2.11-3.62-4.72-3.62h-3.03v10.1h-5.73v-26.59h10.79ZM607.18,43.07h3.62c3.54,0,5.06-1.51,5.06-3.87,0-2.1-1.6-3.45-4.8-3.45h-3.88v7.32Z"/>
    </g>
  </g>
</svg>