<svg width="54" height="53" viewBox="0 0 54 53" fill="none" xmlns="http://www.w3.org/2000/svg">
<rect x="1.25" y="1.25" width="51.5" height="50.5" rx="6.75" fill="black"/>
<rect x="1.25" y="1.25" width="51.5" height="50.5" rx="6.75" fill="white" fill-opacity="0.15"/>
<rect x="1.25" y="1.25" width="51.5" height="50.5" rx="6.75" stroke="url(#paint0_linear_32_124)" stroke-width="2.5"/>
<path d="M13 41.5388L25.3879 30.6006L30.6728 33.7906L29.2523 27.1248L35.5594 21.6557L28.5131 22.738L26.695 15.9585L23.5982 23.6782L14.1079 24.9886L21.3604 28.7486L13 41.5388Z" fill="white"/>
<path d="M18.2538 41.5388L23.8541 32.9933L22.6604 37.0383C22.6604 37.0383 38.7987 34.19 36.9239 23.7067C36.6644 22.2555 36.215 20.9508 35.329 19.7427C33.2246 16.8731 29.122 15.1264 25.6219 15.3317C20.9607 15.6061 16.4165 17.6499 13.1368 20.9863C13.4962 20.6203 13.74 20.0156 14.047 19.5942C14.4035 19.1024 14.7877 18.6305 15.1945 18.18C15.9799 17.3123 16.8531 16.5199 17.8072 15.8427C22.0367 12.8438 27.4811 12.379 32.3875 13.6958C34.7613 14.3326 36.943 15.6821 38.5669 17.5326C40.2085 19.4037 40.9315 22.139 40.9953 24.5871C41.0279 25.8215 40.8932 27.0609 40.5955 28.259C39.3466 33.2747 35.0781 36.9139 30.417 38.7211C27.9149 39.6904 25.2568 40.2348 22.6037 40.5837C21.9126 40.6746 21.0117 40.6071 20.3582 40.8281L18.253 41.5402L18.2538 41.5388Z" fill="white"/>
<defs>
<linearGradient id="paint0_linear_32_124" x1="8.48571" y1="2.43381e-07" x2="15.933" y2="16.8834" gradientUnits="userSpaceOnUse">
<stop stop-color="white" stop-opacity="0.15"/>
<stop offset="1" stop-color="#F7F6F3" stop-opacity="0"/>
</linearGradient>
</defs>
</svg>
