<svg width="54" height="53" viewBox="0 0 54 53" fill="none" xmlns="http://www.w3.org/2000/svg">
<rect x="1.25" y="1.25" width="51.5" height="50.5" rx="6.75" fill="black"/>
<rect x="1.25" y="1.25" width="51.5" height="50.5" rx="6.75" fill="white" fill-opacity="0.15"/>
<rect x="1.25" y="1.25" width="51.5" height="50.5" rx="6.75" stroke="url(#paint0_linear_70_976)" stroke-width="2.5"/>
<path d="M45.1528 17.2993L45.0276 17.7112L44.9979 17.6815L44.8854 17.7961V17.9086L44.7707 18.0232V18.2504L44.6582 18.3629V18.4776L44.5436 18.5901V18.7047L44.3164 18.9319V19.0465L44.2018 19.159V19.3862L44.0893 19.5008V19.6133L43.8621 19.8405V20.0676L43.7475 20.1823V20.2948L43.635 20.4094V20.5219L43.5203 20.6366V20.7491L43.2932 20.9762V21.0909L43.1807 21.2034V21.318L43.066 21.4305V21.5452L42.9535 21.6577V21.7723L42.8389 21.8848V21.9995L42.7264 22.112V22.2266L42.4971 22.4538V22.5684L42.3846 22.6809V22.7956L42.2699 22.9081V23.0227L42.1574 23.1352V23.2499L42.0428 23.3624V23.477L41.9303 23.5917V23.7042L41.8156 23.8188V23.9313L41.7031 24.046V24.1585L41.5885 24.2731V24.3856L41.476 24.5003V24.6128L41.2488 24.8399V25.0671L41.0216 25.2942V25.4089L40.907 25.5214V25.636L40.7924 25.7507V25.8632L40.6799 25.9778V26.0903L40.5652 26.205V26.3175L40.4527 26.4321V26.5446L40.3381 26.6593V26.7718L40.1109 26.9989V27.1136L39.9984 27.2261V27.3407L39.8838 27.4532V27.5679L39.7713 27.6804V27.795L39.6566 27.9075V28.0222L39.4295 28.2493V28.3619L39.3169 28.4765V28.589L39.2023 28.7036V28.8183L39.0898 28.9308V29.0454L38.9752 29.1579V29.7269L38.8626 29.8394V30.9773L38.748 31.0898V32.2256L38.6355 32.3402V33.476L38.5209 33.5906V34.6117L38.4083 34.7264V35.8621L38.2937 35.9768V36.6582L37.954 37H32.4981L32.3856 36.8854H32.271V36.2039L32.3856 36.0893V34.8389L32.4981 34.7264V33.9303L32.6128 33.8177V33.0217L32.7253 32.9091V31.9984L32.8399 31.8859V31.2044L32.9524 31.0898V30.2958L33.0671 30.1812V29.3851L32.9524 29.2726V29.0454L32.8399 28.9308V28.7036L32.7253 28.589V28.4765L32.6128 28.3619V28.2493L32.4981 28.1347V28.0222L32.3856 27.9075V27.795L32.271 27.6804V27.4532L32.1585 27.3407V27.2261L32.0438 27.1136V26.8864L31.9313 26.7718V26.6593L31.8167 26.5446V26.3175L31.7042 26.205V26.0903L31.5895 25.9778V25.8632L31.477 25.7507V25.5214L31.3624 25.4089V25.2942L31.2499 25.1817V25.0671L31.1352 24.9546V24.8399L31.0227 24.7274V24.5003L30.9081 24.3856V24.2731L30.7934 24.1585V23.9313L30.6809 23.8188V23.7042L30.5663 23.5917V23.477L30.4538 23.3624V23.1352L30.3391 23.0227V22.9081L30.2266 22.7956V22.5684L30.112 22.4538V22.3413L29.9995 22.2266V22.112L29.8848 21.9995V21.7723L29.7723 21.6577V21.5452L29.6577 21.4305V21.318L29.543 21.2034V20.9762L29.4305 20.8637V20.6366L29.3159 20.5219V20.4094L29.0887 20.1823H28.9762L28.7491 20.4094V22.3413L28.6344 22.4538V24.1585L28.5219 24.2731V25.7507L28.4073 25.8632V27.5679L28.2948 27.6804V29.4997L28.1801 29.6122V29.8394L28.2948 29.954L28.1801 30.0687V31.2044L28.0676 31.317V33.0217L27.953 33.1363V35.2953L27.8405 35.4078V36.7728L27.6112 37H22.0449L21.8177 36.7728V35.066L21.9303 34.9535V33.476L22.0449 33.3634V32.113L22.1574 31.9984V30.523L22.2721 30.4083V28.8183L22.3846 28.7036V27.5679L22.1574 27.3407L22.0449 27.4532H21.9303L21.7031 27.6804V27.9075L21.5906 28.0222V28.2493L21.476 28.3619V28.7036L21.3634 28.8183V29.0454L21.2488 29.1579V29.3851L21.1363 29.4997V29.7269L21.0217 29.8394V30.0687L20.907 30.1812V30.4083L20.7945 30.523V30.7501L20.6799 30.8626V31.0898L20.5673 31.2044V31.4316L20.4527 31.5441V31.7713L20.3402 31.8859V32.113L20.2256 32.2256V32.4548L20.113 32.5673V32.9091L19.9984 33.0217V33.2488L19.8859 33.3634V33.5906L19.7713 33.7031V34.0449L19.6587 34.1574V34.3846L19.5441 34.4992V34.7264L19.4316 34.8389V35.066L19.317 35.1807V35.4078L19.2044 35.5224V35.8621L19.0898 35.9768V36.2039L18.9773 36.3164V36.5457L18.8626 36.6582V36.7728L18.6355 37H14.2028L14.0903 36.8854V36.6582L13.9757 36.5457V35.4078L13.8632 35.2953V34.1574L13.7485 34.0449V33.1363L13.636 33.0217V31.9984L13.5214 31.8859V30.8626L13.4089 30.7501V29.7269L13.2942 29.6122V28.7036L13.1817 28.589V27.9075L13.0671 27.795V27.5679L12.8399 27.3407H12.6128L12.5003 27.4532V27.5679L12.3856 27.6804V28.1347L12.2731 28.2493V28.8183L12.1585 28.9308V29.4997L12.046 29.6122V30.2958L11.9313 30.4083V30.8626L11.8188 30.9773V31.6587L11.7042 31.7713V32.3402L11.5917 32.4548V33.1363L11.477 33.2488V33.7031L11.3624 33.8177V34.3846L11.2499 34.4992V35.066L11.1352 35.1807V35.9768L11.0227 36.0893V36.6582L10.6809 37H5.22715L5.11464 36.8854V36.7728L5 36.6582V36.4311L5.11464 36.3164V35.7496L5.22715 35.635V34.9535L5.34179 34.8389V34.2721L5.4543 34.1574V33.7031L5.56894 33.5906V33.0217L5.68146 32.9091V32.2256L5.79609 32.113V31.5441L5.90861 31.4316V30.8626L6.02325 30.7501V30.2958L6.13576 30.1812V29.6122L6.2504 29.4997V28.9308L6.36291 28.8183V28.2493L6.47755 28.1347V27.6804L6.59006 27.5679V26.9989L6.7047 26.8864V26.3175L6.81722 26.205V25.636L6.93185 25.5214V24.9546L7.04437 24.8399V24.3856L7.15901 24.2731V23.5917L7.27152 23.477V23.0227L7.38616 22.9081V22.2266L7.49867 22.112V21.6577L7.61331 21.5452V20.9762L7.72583 20.8637V20.2948L7.84046 20.1823V19.7279L7.9551 19.6133V19.0465L8.06761 18.9319V18.4776L8.18225 18.3629V17.9086L8.29477 17.7961V17.3418L8.4094 17.2272V17.1146L8.52192 17H9.54516H9.99947H10.112H10.1141H10.3413H11.0227H11.2499H15.6804L15.795 17.1146H15.9075L16.1347 17.3418V18.0232L16.2493 18.1358V19.159L16.3619 19.2736V20.0676L16.4765 20.1823V21.0909L16.589 21.2034V21.9995L16.7036 22.112V23.0227L16.8183 23.1352V24.2731L16.9308 24.3856V25.1817L17.0454 25.2942V26.205L17.1579 26.3175V26.9989L17.2726 27.1136V27.2261L17.3851 27.3407H17.6122L17.8394 27.1136V26.8864L17.954 26.7718V26.6593L18.0687 26.5446V26.3175L18.1812 26.205V25.9778L18.2958 25.8632V25.636L18.4083 25.5214V25.2942L18.523 25.1817V24.9546L18.6355 24.8399V24.6128L18.7501 24.5003V24.2731L18.8626 24.1585V23.9313L18.9773 23.8188V23.5917L19.0898 23.477V23.2499L19.2044 23.1352V22.9081L19.317 22.7956V22.5684L19.4316 22.4538V22.2266L19.5441 22.112V21.9995L19.6587 21.8848V21.6577L19.7713 21.5452V21.318L19.8859 21.2034V20.9762L19.9984 20.8637V20.6366L20.113 20.5219V20.2948L20.2256 20.1823V19.9551L20.3402 19.8405V19.6133L20.4527 19.5008V19.2736L20.5673 19.159V18.9319L20.6799 18.8172V18.7047L20.7945 18.5901V18.2504L20.907 18.1358V17.9086L21.0217 17.7961V17.6815L21.1363 17.5689V17.4543L21.2488 17.3418V17.2272L21.3634 17.1146H21.476L21.5906 17H32.0438H32.271H32.6107H32.6128H32.7253H32.7274H33.065H33.0671H33.5214H33.8611L33.9757 17.1146H34.2028L34.43 17.3418V17.4543L34.5446 17.5689V17.6815L34.6571 17.7961V18.0232L34.7718 18.1358V18.4776L34.8843 18.5901V18.8172L34.9989 18.9319V19.159L35.1115 19.2736V19.5008L35.2261 19.6133V19.8405L35.3386 19.9551V20.1823L35.4532 20.2948V20.6366L35.5658 20.7491V20.8637L35.6804 20.9762V21.318L35.7929 21.4305V21.5452L35.9075 21.6577V21.9995L36.0201 22.112V22.2266L36.3618 22.5684H36.7036L37.0433 22.2266V22.112L37.1579 21.9995V21.7723L37.2705 21.6577V21.4305L37.3851 21.318V21.0909L37.4976 20.9762V20.6366L37.6122 20.5219V20.2948L37.7269 20.1823V19.9551L37.8394 19.8405V19.5008L37.954 19.3862V19.159L38.0666 19.0465V18.8172L38.1812 18.7047V18.4776L38.2937 18.3629V18.1358L38.4083 18.0232V17.9086L38.5209 17.7961V17.4543L38.8626 17.1146H38.9752L39.0898 17H44.6582L44.7707 17.1146H44.8854L45.1125 17.3418L45.1528 17.2993Z" fill="white"/>
<path d="M49.6769 18.8108C49.6769 19.8978 48.9742 20.6217 47.9149 20.6217C46.8555 20.6217 46.1528 19.8978 46.1528 18.8108C46.1528 17.7239 46.8555 17 47.9149 17C48.9742 17 49.6769 17.7239 49.6769 18.8108ZM46.4055 18.8108C46.4055 19.7449 47.0084 20.3691 47.9149 20.3691C48.8213 20.3691 49.4242 19.7449 49.4242 18.8108C49.4242 17.8768 48.8213 17.2526 47.9149 17.2526C47.0084 17.2526 46.4055 17.8768 46.4055 18.8108ZM47.9764 17.8725C48.4116 17.8725 48.6218 18.0784 48.6218 18.4011C48.6218 18.6177 48.4923 18.8002 48.28 18.8533V18.866C48.4031 18.9021 48.4732 18.9828 48.5496 19.1951L48.7428 19.7279H48.3203L48.1611 19.2758C48.1017 19.089 48.0146 19.0231 47.8321 19.0231H47.6198V19.7279H47.2207V17.8725H47.9722H47.9764ZM47.624 18.7047H47.8766C48.1229 18.7047 48.229 18.5986 48.229 18.4351C48.229 18.2886 48.1165 18.1952 47.8936 18.1952H47.624V18.7047Z" fill="white"/>
<defs>
<linearGradient id="paint0_linear_70_976" x1="8.48571" y1="2.43381e-07" x2="15.933" y2="16.8834" gradientUnits="userSpaceOnUse">
<stop stop-color="white" stop-opacity="0.15"/>
<stop offset="1" stop-color="#F7F6F3" stop-opacity="0"/>
</linearGradient>
</defs>
</svg>
