<svg width="54" height="53" viewBox="0 0 54 53" fill="none" xmlns="http://www.w3.org/2000/svg">
<rect x="1.25" y="1.25" width="51.5" height="50.5" rx="6.75" fill="black"/>
<rect x="1.25" y="1.25" width="51.5" height="50.5" rx="6.75" fill="white" fill-opacity="0.15"/>
<rect x="1.25" y="1.25" width="51.5" height="50.5" rx="6.75" stroke="url(#paint0_linear_32_117)" stroke-width="2.5"/>
<path d="M18.42 39.1145H12V13H24.0197C29.6908 13 33.1148 15.7028 33.1148 20.4508C33.1148 24.1032 31.1175 26.2581 27.9431 26.9886V27.0617C34.3275 28.1939 32.0091 38.311 33.4715 38.7493V39.1145H26.8018C25.5534 38.0188 27.8718 30.0201 22.4147 30.0201H18.42V39.1145ZM18.42 24.6511H22.7714C25.3394 24.6511 26.6948 23.7015 26.6948 21.51C26.6948 19.3186 25.3394 18.369 22.7714 18.369H18.42V24.6511ZM39.0882 39.4067C38.1371 39.4067 37.3167 39.078 36.6272 38.4205C35.9614 37.7387 35.6285 36.8744 35.6285 35.8274C35.6285 34.7803 35.9614 33.9403 36.6272 33.3072C37.3167 32.6498 38.1371 32.3211 39.0882 32.3211C40.0631 32.3211 40.8834 32.6498 41.5492 33.3072C42.2149 33.9403 42.5479 34.7803 42.5479 35.8274C42.5479 36.8744 42.2149 37.7387 41.5492 38.4205C40.8834 39.078 40.0631 39.4067 39.0882 39.4067Z" fill="white"/>
<path d="M35.3717 19.9984C35.1193 20.257 35.1193 20.6761 35.3717 20.9348C35.6243 21.1933 36.0336 21.1933 36.2861 20.9348L35.3717 19.9984ZM42.2942 14.508C42.2942 14.1424 42.0048 13.8459 41.6477 13.8459H35.8289C35.4718 13.8459 35.1824 14.1424 35.1824 14.508C35.1824 14.8737 35.4718 15.1701 35.8289 15.1701H41.0012V20.4666C41.0012 20.8323 41.2906 21.1286 41.6477 21.1286C42.0048 21.1286 42.2942 20.8323 42.2942 20.4666V14.508ZM36.2861 20.9348L42.1049 14.9762L41.1905 14.0399L35.3717 19.9984L36.2861 20.9348Z" fill="white"/>
<defs>
<linearGradient id="paint0_linear_32_117" x1="8.48571" y1="2.43381e-07" x2="15.933" y2="16.8834" gradientUnits="userSpaceOnUse">
<stop stop-color="white" stop-opacity="0.15"/>
<stop offset="1" stop-color="#F7F6F3" stop-opacity="0"/>
</linearGradient>
</defs>
</svg>
