<svg width="54" height="53" viewBox="0 0 54 53" fill="none" xmlns="http://www.w3.org/2000/svg">
<rect x="1.25" y="1.25" width="51.5" height="50.5" rx="6.75" fill="black"/>
<rect x="1.25" y="1.25" width="51.5" height="50.5" rx="6.75" fill="white" fill-opacity="0.15"/>
<rect x="1.25" y="1.25" width="51.5" height="50.5" rx="6.75" stroke="url(#paint0_linear_47_916)" stroke-width="2.5"/>
<path d="M25.7267 13.066V20.7014C24.9119 20.867 24.1576 21.1863 23.4896 21.628L23.1812 21.3196V13.4647C23.6445 13.334 24.1159 13.2263 24.5954 13.1441C24.9469 13.0822 25.3025 13.035 25.6634 13L25.7267 13.066Z" fill="white"/>
<path d="M30.818 13.4647V21.8462C30.7669 21.8085 30.7157 21.7721 30.6645 21.7344C30.6133 21.6981 30.5608 21.6617 30.5083 21.6267C30.3412 21.5149 30.1688 21.4139 29.9911 21.3182C29.9305 21.2859 29.8685 21.2549 29.8065 21.2253C29.8012 21.2213 29.7944 21.2199 29.7877 21.2159C29.7783 21.2105 29.7675 21.2051 29.7581 21.2011C29.7163 21.1795 29.6719 21.1593 29.6288 21.1405C29.556 21.1054 29.4833 21.0745 29.4106 21.0462C29.4092 21.0462 29.4092 21.0448 29.4065 21.0448C29.3244 21.0098 29.2422 20.9788 29.1587 20.9479C29.0658 20.9128 28.9715 20.8819 28.8745 20.8536C28.8691 20.8522 28.8637 20.8495 28.8583 20.8482C28.7924 20.828 28.725 20.8078 28.6577 20.7916C28.6469 20.7903 28.6375 20.7862 28.6267 20.7849C28.5957 20.7741 28.5634 20.766 28.5324 20.7593C28.4462 20.7377 28.36 20.7175 28.2725 20.6987V13.066L28.3358 13C28.6967 13.035 29.0523 13.0822 29.4038 13.1441C29.8847 13.2263 30.3547 13.334 30.818 13.4647Z" fill="white"/>
<path d="M37.7596 17.9795L37.7084 18.0293L35.9993 19.7398L32.3991 23.34L32.3075 23.4289C32.2388 23.3238 32.1661 23.2215 32.0907 23.1205C31.9088 22.878 31.7122 22.6504 31.498 22.4389C31.4455 22.3837 31.3903 22.3339 31.3364 22.2827C31.2812 22.2315 31.2246 22.1803 31.1694 22.1319C31.0549 22.0322 30.9377 21.9366 30.8179 21.8477V21.321L32.3358 19.8031L34.1083 18.0293L34.1487 17.9916L35.9575 16.1814C36.2835 16.4535 36.5986 16.7403 36.899 17.0407C37.1993 17.341 37.4862 17.6549 37.7583 17.9808L37.7596 17.9795Z" fill="white"/>
<path d="M40.3201 22.6167L37.7988 25.1381L37.2708 25.6647H33.6707L34.1986 25.1381L35.3919 23.9434L35.9078 23.4276L35.9994 23.3387L37.3382 21.9999L38.7632 20.5749L39.2265 20.1116C39.3127 20.2624 39.3935 20.4173 39.4743 20.5749C39.8083 21.2268 40.0925 21.9096 40.3215 22.6167H40.3201Z" fill="white"/>
<path d="M40.4708 30.7559C40.4236 30.9229 40.3725 31.0912 40.3172 31.2569C40.0896 31.964 39.8054 32.6469 39.4714 33.3014H14.5261C14.1921 32.6469 13.9079 31.964 13.6789 31.2569C13.6264 31.0912 13.5752 30.9229 13.5281 30.7559H40.4708Z" fill="white"/>
<path d="M33.2363 33.2998L33.2341 33.302V33.2998H33.2363Z" fill="white"/>
<path d="M24.5954 40.7291C24.1146 40.647 23.6445 40.5392 23.1812 40.4086C23.0142 40.3614 22.8458 40.3102 22.6788 40.255C21.9717 40.0274 21.2889 39.7432 20.6343 39.4092C20.4794 39.3284 20.3258 39.2476 20.1737 39.1614C19.7507 38.9243 19.3453 38.6671 18.9493 38.3896C18.6544 38.1835 18.3688 37.9653 18.0914 37.735H18.09C18.0739 37.7202 18.0591 37.7081 18.0429 37.6933C17.7156 37.4199 17.4018 37.1343 17.1014 36.8353C16.8011 36.535 16.5142 36.2198 16.2421 35.8939C16.2273 35.8777 16.2152 35.8615 16.2017 35.844C15.9728 35.5666 15.7559 35.281 15.5472 34.9861C15.2684 34.5928 15.0111 34.1833 14.7754 33.7604C14.6892 33.6096 14.6084 33.456 14.5276 33.2998H17.1648L18.0012 34.1362L18.09 34.2251L20.6356 36.7707L21.6013 37.7364L22.2573 38.391L23.1825 39.3176L23.4007 39.5358L24.5954 40.7291Z" fill="white"/>
<path d="M31.3215 40.2564C31.1558 40.3116 30.9861 40.3614 30.8191 40.4099H30.8178C30.3571 40.5406 29.8871 40.6483 29.4063 40.7305C29.0547 40.7924 28.6992 40.8396 28.3382 40.8746C28.318 40.8759 28.2951 40.8786 28.2722 40.88V40.8086L27.0008 39.5371L25.8573 38.391L25.794 38.329L25.728 38.263L25.2013 37.7364L23.4019 35.937L23.313 35.8454L23.1837 35.7174L20.7661 33.2998H24.3663L25.2027 34.1362L26.9119 35.8454L27.0035 35.937L28.2749 37.2084L28.8029 37.7364L29.2406 38.1714L29.4588 38.3896L30.6023 39.5358L30.8191 39.7526L31.3242 40.255L31.3215 40.2564Z" fill="white"/>
<path d="M35.9575 37.6949C35.9427 37.7097 35.9252 37.7218 35.9104 37.7366H35.909C35.6316 37.9656 35.346 38.1851 35.0511 38.3912C34.6578 38.67 34.2483 38.9273 33.8268 39.163L33.3634 38.6996L33.055 38.3899L32.3991 37.7353L31.9385 37.272L30.8165 36.1514L30.5081 35.8429L29.9949 35.3271H29.9936L28.2723 33.6058L27.9666 33.2974H31.564L32.3358 34.0691L32.3991 34.1324L33.3634 35.0954L35.9575 37.6895V37.6949Z" fill="white"/>
<path d="M39.4727 33.3012C39.3919 33.4574 39.3084 33.6109 39.2249 33.7618C38.9905 34.1847 38.7306 34.5941 38.4531 34.9874C38.247 35.2824 38.0289 35.5679 37.7985 35.8454C37.7837 35.8615 37.7716 35.8777 37.7581 35.8952L37.7083 35.8454L35.9978 34.1362L35.9466 34.085L35.9062 34.0446L35.1614 33.2998H39.4713L39.4727 33.3012Z" fill="white"/>
<path d="M23.3993 28.209H13.0581V28.2103H23.3993V28.209Z" fill="white"/>
<path d="M27.6717 23.1783C27.6959 23.1823 27.7188 23.185 27.7431 23.1931C27.7135 23.1877 27.6851 23.1823 27.6541 23.1769C27.6353 23.1729 27.6191 23.1702 27.6016 23.1675C27.6258 23.1688 27.6487 23.1729 27.673 23.1783H27.6717Z" fill="white"/>
<path d="M29.4629 24.0203C29.5451 24.089 29.6233 24.1605 29.7001 24.2386C29.626 24.1645 29.5451 24.0904 29.4629 24.0203Z" fill="white"/>
<path d="M29.7013 24.2383C29.739 24.276 29.7754 24.3151 29.8132 24.3556C29.7768 24.3151 29.739 24.2774 29.7 24.2383H29.7013Z" fill="white"/>
<path d="M30.5998 25.6647C30.5782 25.6013 30.5539 25.5366 30.5283 25.4746C30.5539 25.5366 30.5782 25.6 30.6011 25.6647C30.62 25.7146 30.6362 25.7644 30.651 25.8157C30.6348 25.7644 30.6186 25.7132 30.5998 25.6647Z" fill="white"/>
<path d="M40.9408 28.209V28.2117H30.5996L30.601 28.209H40.9408Z" fill="white"/>
<path d="M20.3287 25.6646H16.7285L15.7628 24.7016L15.5446 24.4834L14.4011 23.3399L13.6792 22.618C13.9082 21.9109 14.1924 21.228 14.5264 20.5761C14.6072 20.4199 14.688 20.265 14.7742 20.1128L15.2375 20.5761L15.546 20.8845L16.2019 21.5405L16.6625 22.0011L17.7831 23.1217L18.0013 23.3399L18.0929 23.4288L18.6087 23.9446L19.8021 25.1393L20.33 25.6659L20.3287 25.6646Z" fill="white"/>
<path d="M34.1488 17.9902L32.3359 19.8018L34.1084 18.0279L34.1488 17.9902Z" fill="white"/>
<path d="M33.2363 33.2998L33.2341 33.302V33.2998H33.2363Z" fill="white"/>
<path d="M23.3993 28.209H15.6157V28.2103H23.3993V28.209Z" fill="white"/>
<path d="M27.6717 23.1783C27.6959 23.1823 27.7188 23.185 27.7431 23.1931C27.7135 23.1877 27.6851 23.1823 27.6541 23.1769C27.6353 23.1729 27.6191 23.1702 27.6016 23.1675C27.6258 23.1688 27.6487 23.1729 27.673 23.1783H27.6717Z" fill="white"/>
<path d="M29.4629 24.0203C29.5451 24.089 29.6233 24.1605 29.7001 24.2386C29.626 24.1645 29.5451 24.0904 29.4629 24.0203Z" fill="white"/>
<path d="M29.7013 24.2383C29.739 24.276 29.7754 24.3151 29.8132 24.3556C29.7768 24.3151 29.739 24.2774 29.7 24.2383H29.7013Z" fill="white"/>
<path d="M30.5998 25.6647C30.5782 25.6013 30.5539 25.5366 30.5283 25.4746C30.5539 25.5366 30.5782 25.6 30.6011 25.6647C30.62 25.7146 30.6362 25.7644 30.651 25.8157C30.6348 25.7644 30.6186 25.7132 30.5998 25.6647Z" fill="white"/>
<path d="M38.3818 28.209V28.2117H30.5996L30.601 28.209H38.3818Z" fill="white"/>
<path d="M23.4897 21.6279C23.386 21.6993 23.2823 21.7693 23.1812 21.8461C23.0681 21.9323 22.9577 22.0212 22.8499 22.1141C22.7422 22.207 22.6385 22.304 22.5361 22.4023L22.4634 22.4737C22.2654 22.6771 22.0795 22.8926 21.9071 23.1202C21.833 23.2199 21.759 23.3222 21.6903 23.4286L21.5987 23.3398L21.3805 23.1216L20.6357 22.3741L19.8639 21.6036L19.8006 21.5403L18.8376 20.576L18.0928 19.8285L18.0524 19.7881L18.0012 19.7382L16.292 18.0277L16.2422 17.9779C16.5143 17.6519 16.7998 17.3381 17.1001 17.0378C17.4005 16.7374 17.7157 16.4492 18.0416 16.1785L18.0914 16.2283L19.8518 17.99L19.8922 18.0277L20.637 18.7725L21.6647 19.8015L23.4897 21.6265V21.6279Z" fill="white"/>
<path d="M23.4006 28.209H18.1829V28.2103H23.4006V28.209Z" fill="white"/>
<path d="M27.6717 23.1783C27.6959 23.1823 27.7188 23.185 27.7431 23.1931C27.7135 23.1877 27.6851 23.1823 27.6541 23.1769C27.6353 23.1729 27.6191 23.1702 27.6016 23.1675C27.6258 23.1688 27.6487 23.1729 27.673 23.1783H27.6717Z" fill="white"/>
<path d="M29.4629 24.0203C29.5451 24.089 29.6233 24.1605 29.7001 24.2386C29.626 24.1645 29.5451 24.0904 29.4629 24.0203Z" fill="white"/>
<path d="M29.7013 24.2383C29.739 24.276 29.7754 24.3151 29.8132 24.3556C29.7768 24.3151 29.739 24.2774 29.7 24.2383H29.7013Z" fill="white"/>
<path d="M30.5998 25.6647C30.5782 25.6013 30.5539 25.5366 30.5283 25.4746C30.5539 25.5366 30.5782 25.6 30.6011 25.6647C30.62 25.7146 30.6362 25.7644 30.651 25.8157C30.6348 25.7644 30.6186 25.7132 30.5998 25.6647Z" fill="white"/>
<path d="M35.8187 28.209V28.2117H30.5996L30.601 28.209H35.8187Z" fill="white"/>
<path d="M41 26.9376C41 27.3659 40.9798 27.7888 40.9421 28.209L30.6008 28.2103H30.6022C30.7423 27.809 30.819 27.3834 30.819 26.9376C30.819 26.5483 30.7611 26.1712 30.652 25.8156C30.6359 25.7644 30.6197 25.7133 30.6008 25.6648C30.5793 25.6015 30.5551 25.5368 30.5295 25.4749C30.5025 25.4129 30.4769 25.3509 30.4473 25.2903C30.4231 25.2405 30.3975 25.192 30.3732 25.1449C30.2965 25.0008 30.2116 24.862 30.1187 24.7314C30.0257 24.598 29.9234 24.4728 29.8143 24.3543C29.7779 24.3139 29.7402 24.2761 29.7011 24.2371C29.6271 24.163 29.5463 24.0889 29.4641 24.0189C29.2163 23.8115 28.9415 23.631 28.6465 23.4909C28.5267 23.433 28.4001 23.3818 28.2748 23.336C28.225 23.3172 28.1751 23.301 28.124 23.2862C28.0256 23.2566 27.9273 23.2296 27.825 23.2081C27.8048 23.204 27.7846 23.1987 27.763 23.196C27.7576 23.1946 27.7522 23.1946 27.7441 23.1919C27.7199 23.1852 27.697 23.1811 27.6728 23.1771C27.6674 23.1758 27.6606 23.1758 27.6539 23.1758C27.635 23.1717 27.6189 23.169 27.6014 23.1663C27.5664 23.1609 27.53 23.1556 27.4936 23.1502C27.332 23.13 27.1677 23.1192 26.9993 23.1192C26.831 23.1192 26.668 23.13 26.505 23.1502C26.4242 23.1609 26.3461 23.1744 26.2707 23.1879C26.2208 23.1973 26.1737 23.2081 26.1266 23.2189C26.1198 23.2202 26.1117 23.2229 26.105 23.2242C26.0848 23.2283 26.0673 23.2337 26.0471 23.2391C26.0309 23.2431 26.0161 23.2458 26.0013 23.2512C25.9609 23.2606 25.9205 23.2714 25.8828 23.2835C25.8302 23.2997 25.7791 23.3158 25.7279 23.3347C25.5986 23.3805 25.4747 23.4317 25.3521 23.4896C25.0571 23.6323 24.7837 23.8101 24.5359 24.0175C24.4538 24.0862 24.3756 24.159 24.2989 24.2357C24.2221 24.3125 24.1494 24.3906 24.0807 24.4741C24.0456 24.5145 24.012 24.5563 23.9783 24.5994C23.88 24.7273 23.7884 24.862 23.7062 25.0021C23.651 25.095 23.6012 25.192 23.5527 25.2903C23.4948 25.4102 23.4409 25.5368 23.3978 25.6621C23.255 26.0607 23.1796 26.489 23.1796 26.9349C23.1796 27.3241 23.2402 27.7012 23.3493 28.0568C23.3641 28.108 23.3803 28.1565 23.3992 28.2063L13.0579 28.2077C13.0202 27.7847 13 27.3618 13 26.9349C13 26.5079 13.0202 26.0809 13.0579 25.6621H20.762C20.9277 24.8499 21.2469 24.093 21.6913 23.4249C21.76 23.3199 21.8327 23.2175 21.9082 23.1165C22.0792 22.8889 22.2651 22.6734 22.4644 22.4713L22.5372 22.3986C22.6395 22.3003 22.7432 22.2033 22.851 22.1104C22.9587 22.0175 23.0692 21.9286 23.1823 21.8424C23.282 21.7656 23.3857 21.6942 23.4907 21.6242C24.1588 21.181 24.913 20.8632 25.7279 20.6975H25.7292C25.8491 20.6733 25.9757 20.6517 26.101 20.6342C26.3946 20.5925 26.6949 20.5723 27.0007 20.5723C27.3064 20.5723 27.6068 20.5925 27.9004 20.6342C28.0256 20.6531 28.1496 20.6746 28.2735 20.6975C28.361 20.7164 28.4486 20.7352 28.5334 20.7581C28.5644 20.7649 28.5967 20.7729 28.6277 20.7837C28.6385 20.7851 28.6479 20.7891 28.6587 20.7905C28.726 20.8066 28.7934 20.8268 28.8593 20.847C28.8647 20.8484 28.8701 20.8511 28.8755 20.8524C28.9725 20.882 29.0668 20.913 29.1597 20.9467C29.2432 20.9777 29.3267 21.0073 29.4075 21.0437C29.4089 21.0437 29.4089 21.045 29.4116 21.045C29.4843 21.0746 29.557 21.1056 29.6298 21.1393C29.6729 21.1582 29.7173 21.177 29.7591 21.1999C29.7685 21.2039 29.7793 21.2093 29.7887 21.2147C29.7941 21.2188 29.8008 21.2201 29.8075 21.2241C29.8695 21.2538 29.9315 21.2848 29.9921 21.3171C30.1712 21.4114 30.3422 21.5151 30.5093 21.6269C30.5618 21.6619 30.6143 21.6956 30.6655 21.7319C30.7167 21.7683 30.7679 21.8046 30.819 21.8437C30.9389 21.9326 31.0561 22.0282 31.1706 22.1279C31.2271 22.1777 31.2837 22.2276 31.3376 22.2787C31.3928 22.3299 31.4467 22.3825 31.4992 22.435C31.712 22.6464 31.9087 22.8741 32.0918 23.1165C32.1659 23.2162 32.24 23.3185 32.3087 23.4249C32.7531 24.093 33.0723 24.8499 33.238 25.6621H40.9421C40.9798 26.0809 41 26.5052 41 26.9349V26.9376Z" fill="white"/>
<path d="M23.3994 28.209H20.7622V28.2103H23.3994V28.209Z" fill="white"/>
<path d="M27.6717 23.1783C27.6959 23.1823 27.7188 23.185 27.7431 23.1931C27.7135 23.1877 27.6851 23.1823 27.6541 23.1769C27.6353 23.1729 27.6191 23.1702 27.6016 23.1675C27.6258 23.1688 27.6487 23.1729 27.673 23.1783H27.6717Z" fill="white"/>
<path d="M29.4629 24.0203C29.5451 24.089 29.6233 24.1605 29.7001 24.2386C29.626 24.1645 29.5451 24.0904 29.4629 24.0203Z" fill="white"/>
<path d="M29.7013 24.2383C29.739 24.276 29.7754 24.3151 29.8132 24.3556C29.7768 24.3151 29.739 24.2774 29.7 24.2383H29.7013Z" fill="white"/>
<path d="M30.5998 25.6647C30.5782 25.6013 30.5539 25.5366 30.5283 25.4746C30.5539 25.5366 30.5782 25.6 30.6011 25.6647C30.62 25.7146 30.6362 25.7644 30.651 25.8157C30.6348 25.7644 30.6186 25.7132 30.5998 25.6647Z" fill="white"/>
<path d="M33.2368 28.209V28.2117H30.5996L30.601 28.209H33.2368Z" fill="white"/>
<path d="M23.3508 28.0605C23.367 28.1118 23.3832 28.1603 23.4021 28.2102H23.4007C23.3818 28.1603 23.3657 28.1118 23.3508 28.0605Z" fill="white"/>
<path d="M30.5284 25.4751C30.5015 25.413 30.4732 25.351 30.4449 25.2904C30.4206 25.2405 30.3977 25.192 30.3721 25.1448C30.3977 25.192 30.4233 25.2418 30.4462 25.2904C30.4759 25.351 30.5015 25.413 30.5284 25.4751Z" fill="white"/>
<defs>
<linearGradient id="paint0_linear_47_916" x1="8.48571" y1="2.43381e-07" x2="15.933" y2="16.8834" gradientUnits="userSpaceOnUse">
<stop stop-color="white" stop-opacity="0.15"/>
<stop offset="1" stop-color="#F7F6F3" stop-opacity="0"/>
</linearGradient>
</defs>
</svg>
